# xmcd
#
# Track frame offsets:
#	150
#	26794
#	44269
#	62381
#	85095
#	109373
#	134407
#	162351
#	183086
#	202981
#
# Disc length: 2930 seconds
#
# Revision: 0
# Processed by: cddbd v1.5.2PL0 Copyright (c) Steve Scherf et al.
# Submitted via: audiograbber 1.83.01
#
DISCID=800b700a
DTITLE=P.C.E.A. Evergreen Choir  - Ready To Go
DYEAR=2015
DGENRE=Gospel
TTITLE0=I Stand Amazed
TTITLE1=Amazing Grace
TTITLE2=What A Friend
TTITLE3=Jesus Is Calling
TTITLE4=God Will Take
TTITLE5=Nainua Macho Yangu
TTITLE6=There Is A Fountain
TTITLE7=Ready To Go
TTITLE8=One Day Jesus
TTITLE9=Amazing Grace (Acapella)
EXTD=
EXTT0=
EXTT1=
EXTT2=
EXTT3=
EXTT4=
EXTT5=
EXTT6=
EXTT7=
EXTT8=
EXTT9=
PLAYORDER=
